<?xml version="1.0" encoding="UTF-8" standalone="no"?>
<!-- Created with Inkscape (http://www.inkscape.org/) -->
<svg
   xmlns:dc="http://purl.org/dc/elements/1.1/"
   xmlns:cc="http://web.resource.org/cc/"
   xmlns:rdf="http://www.w3.org/1999/02/22-rdf-syntax-ns#"
   xmlns:svg="http://www.w3.org/2000/svg"
   xmlns="http://www.w3.org/2000/svg"
   xmlns:xlink="http://www.w3.org/1999/xlink"
   xmlns:sodipodi="http://sodipodi.sourceforge.net/DTD/sodipodi-0.dtd"
   xmlns:inkscape="http://www.inkscape.org/namespaces/inkscape"
   id="svg3432"
   sodipodi:version="0.32"
   inkscape:version="0.45.1"
   width="866"
   height="577"
   version="1.0"
   sodipodi:docbase="F:\DEV\PUZZLE\graphics"
   sodipodi:docname="puzzle_loading_screen3.svg"
   inkscape:output_extension="org.inkscape.output.svg.inkscape"
   inkscape:export-filename="/home/eclesia/presentation.png"
   inkscape:export-xdpi="48.845264"
   inkscape:export-ydpi="48.845264">
  <metadata
     id="metadata3437">
    <rdf:RDF>
      <cc:Work
         rdf:about="">
        <dc:format>image/svg+xml</dc:format>
        <dc:type
           rdf:resource="http://purl.org/dc/dcmitype/StillImage" />
      </cc:Work>
    </rdf:RDF>
  </metadata>
  <defs
     id="defs3435">
    <linearGradient
       inkscape:collect="always"
       id="linearGradient4188">
      <stop
         style="stop-color:#ffffff;stop-opacity:1;"
         offset="0"
         id="stop4190" />
      <stop
         style="stop-color:#ffffff;stop-opacity:0;"
         offset="1"
         id="stop4192" />
    </linearGradient>
    <linearGradient
       inkscape:collect="always"
       id="linearGradient4180">
      <stop
         style="stop-color:#ffffff;stop-opacity:1;"
         offset="0"
         id="stop4182" />
      <stop
         style="stop-color:#ffffff;stop-opacity:0;"
         offset="1"
         id="stop4184" />
    </linearGradient>
    <linearGradient
       inkscape:collect="always"
       id="linearGradient4131">
      <stop
         style="stop-color:#ffffff;stop-opacity:1;"
         offset="0"
         id="stop4133" />
      <stop
         style="stop-color:#ffffff;stop-opacity:0;"
         offset="1"
         id="stop4135" />
    </linearGradient>
    <linearGradient
       id="linearGradient3710">
      <stop
         style="stop-color:#ababab;stop-opacity:1;"
         offset="0"
         id="stop3712" />
      <stop
         style="stop-color:#ffffff;stop-opacity:1;"
         offset="1"
         id="stop3714" />
    </linearGradient>
    <linearGradient
       id="linearGradient3704">
      <stop
         style="stop-color:#000000;stop-opacity:1;"
         offset="0"
         id="stop3706" />
      <stop
         style="stop-color:#ffffff;stop-opacity:0;"
         offset="1"
         id="stop3708" />
    </linearGradient>
    <linearGradient
       id="linearGradient3582">
      <stop
         id="stop3584"
         offset="0"
         style="stop-color:#1f2c71;stop-opacity:1;" />
      <stop
         style="stop-color:#7fafad;stop-opacity:1;"
         offset="0.5"
         id="stop3588" />
      <stop
         id="stop3586"
         offset="1"
         style="stop-color:#ffffff;stop-opacity:1;" />
    </linearGradient>
    <linearGradient
       id="linearGradient3302">
      <stop
         id="stop3304"
         offset="0"
         style="stop-color:#ff0000;stop-opacity:1;" />
      <stop
         id="stop3306"
         offset="1"
         style="stop-color:#000000;stop-opacity:1;" />
    </linearGradient>
    <linearGradient
       id="linearGradient3308">
      <stop
         style="stop-color:#ffffff;stop-opacity:1;"
         offset="0"
         id="stop3310" />
      <stop
         style="stop-color:#000000;stop-opacity:1;"
         offset="1"
         id="stop3312" />
    </linearGradient>
    <linearGradient
       id="linearGradient3659">
      <stop
         id="stop3661"
         offset="0"
         style="stop-color:#000000;stop-opacity:1;" />
      <stop
         id="stop3663"
         offset="1"
         style="stop-color:#ffffff;stop-opacity:0;" />
    </linearGradient>
    <linearGradient
       id="linearGradient6470">
      <stop
         style="stop-color:#005f5c;stop-opacity:1;"
         offset="0"
         id="stop6472" />
      <stop
         style="stop-color:#ffffff;stop-opacity:0;"
         offset="1"
         id="stop6474" />
    </linearGradient>
    <marker
       inkscape:stockid="Arrow1Mstart"
       orient="auto"
       refY="0.0"
       refX="0.0"
       id="Arrow1Mstart"
       style="overflow:visible">
      <path
         id="path3508"
         d="M 0.0,0.0 L 5.0,-5.0 L -12.5,0.0 L 5.0,5.0 L 0.0,0.0 z "
         style="fill-rule:evenodd;stroke:#000000;stroke-width:1.0pt;marker-start:none"
         transform="scale(0.4) translate(10,0)" />
    </marker>
    <marker
       inkscape:stockid="Arrow1Sstart"
       orient="auto"
       refY="0.0"
       refX="0.0"
       id="Arrow1Sstart"
       style="overflow:visible">
      <path
         id="path3514"
         d="M 0.0,0.0 L 5.0,-5.0 L -12.5,0.0 L 5.0,5.0 L 0.0,0.0 z "
         style="fill-rule:evenodd;stroke:#000000;stroke-width:1.0pt;marker-start:none"
         transform="scale(0.2) translate(6,0)" />
    </marker>
    <pattern
       inkscape:collect="always"
       xlink:href="#pattern3796"
       id="pattern3948"
       patternTransform="scale(1.1273089,1.1273089)" />
    <marker
       inkscape:stockid="Arrow2Send"
       orient="auto"
       refY="0.0"
       refX="0.0"
       id="Arrow2Send"
       style="overflow:visible;">
      <path
         id="path3535"
         style="font-size:12.0;fill-rule:evenodd;stroke-width:0.62500000;stroke-linejoin:round;"
         d="M 8.7185878,4.0337352 L -2.2072895,0.016013256 L 8.7185884,-4.0017078 C 6.9730900,-1.6296469 6.9831476,1.6157441 8.7185878,4.0337352 z "
         transform="scale(0.3) rotate(180) translate(-2.3,0)" />
    </marker>
    <marker
       inkscape:stockid="Arrow2Sstart"
       orient="auto"
       refY="0.0"
       refX="0.0"
       id="Arrow2Sstart"
       style="overflow:visible">
      <path
         id="path3532"
         style="font-size:12.0;fill-rule:evenodd;stroke-width:0.62500000;stroke-linejoin:round"
         d="M 8.7185878,4.0337352 L -2.2072895,0.016013256 L 8.7185884,-4.0017078 C 6.9730900,-1.6296469 6.9831476,1.6157441 8.7185878,4.0337352 z "
         transform="scale(0.3) translate(-2.3,0)" />
    </marker>
    <marker
       inkscape:stockid="Arrow1Send"
       orient="auto"
       refY="0.0"
       refX="0.0"
       id="Arrow1Send"
       style="overflow:visible;">
      <path
         id="path3517"
         d="M 0.0,0.0 L 5.0,-5.0 L -12.5,0.0 L 5.0,5.0 L 0.0,0.0 z "
         style="fill-rule:evenodd;stroke:#000000;stroke-width:1.0pt;marker-start:none;"
         transform="scale(0.2) rotate(180) translate(6,0)" />
    </marker>
    <marker
       inkscape:stockid="Arrow2Mstart"
       orient="auto"
       refY="0.0"
       refX="0.0"
       id="Arrow2Mstart"
       style="overflow:visible">
      <path
         id="path3526"
         style="font-size:12.0;fill-rule:evenodd;stroke-width:0.62500000;stroke-linejoin:round"
         d="M 8.7185878,4.0337352 L -2.2072895,0.016013256 L 8.7185884,-4.0017078 C 6.9730900,-1.6296469 6.9831476,1.6157441 8.7185878,4.0337352 z "
         transform="scale(0.6) translate(0,0)" />
    </marker>
    <marker
       inkscape:stockid="Arrow2Mend"
       orient="auto"
       refY="0.0"
       refX="0.0"
       id="Arrow2Mend"
       style="overflow:visible;">
      <path
         id="path3529"
         style="font-size:12.0;fill-rule:evenodd;stroke-width:0.62500000;stroke-linejoin:round;"
         d="M 8.7185878,4.0337352 L -2.2072895,0.016013256 L 8.7185884,-4.0017078 C 6.9730900,-1.6296469 6.9831476,1.6157441 8.7185878,4.0337352 z "
         transform="scale(0.6) rotate(180) translate(0,0)" />
    </marker>
    <marker
       inkscape:stockid="TriangleInL"
       orient="auto"
       refY="0.0"
       refX="0.0"
       id="TriangleInL"
       style="overflow:visible">
      <path
         id="path3591"
         d="M 5.77,0.0 L -2.88,5.0 L -2.88,-5.0 L 5.77,0.0 z "
         style="fill-rule:evenodd;stroke:#000000;stroke-width:1.0pt;marker-start:none"
         transform="scale(-0.8)" />
    </marker>
    <marker
       inkscape:stockid="Tail"
       orient="auto"
       refY="0.0"
       refX="0.0"
       id="Tail"
       style="overflow:visible">
      <g
         id="g3538"
         transform="scale(-1.2)">
        <path
           id="path3540"
           d="M -3.8048674,-3.9585227 L 0.54352094,0"
           style="fill:none;fill-rule:evenodd;stroke:#000000;stroke-width:0.8;marker-start:none;marker-end:none;stroke-linecap:round" />
        <path
           id="path3542"
           d="M -1.2866832,-3.9585227 L 3.0617053,0"
           style="fill:none;fill-rule:evenodd;stroke:#000000;stroke-width:0.8;marker-start:none;marker-end:none;stroke-linecap:round" />
        <path
           id="path3544"
           d="M 1.3053582,-3.9585227 L 5.6537466,0"
           style="fill:none;fill-rule:evenodd;stroke:#000000;stroke-width:0.8;marker-start:none;marker-end:none;stroke-linecap:round" />
        <path
           id="path3546"
           d="M -3.8048674,4.1775838 L 0.54352094,0.21974226"
           style="fill:none;fill-rule:evenodd;stroke:#000000;stroke-width:0.8;marker-start:none;marker-end:none;stroke-linecap:round" />
        <path
           id="path3548"
           d="M -1.2866832,4.1775838 L 3.0617053,0.21974226"
           style="fill:none;fill-rule:evenodd;stroke:#000000;stroke-width:0.8;marker-start:none;marker-end:none;stroke-linecap:round" />
        <path
           id="path3550"
           d="M 1.3053582,4.1775838 L 5.6537466,0.21974226"
           style="fill:none;fill-rule:evenodd;stroke:#000000;stroke-width:0.8;marker-start:none;marker-end:none;stroke-linecap:round" />
      </g>
    </marker>
    <marker
       inkscape:stockid="Arrow2Lend"
       orient="auto"
       refY="0.0"
       refX="0.0"
       id="Arrow2Lend"
       style="overflow:visible;">
      <path
         id="path3523"
         style="font-size:12.0;fill-rule:evenodd;stroke-width:0.62500000;stroke-linejoin:round;"
         d="M 8.7185878,4.0337352 L -2.2072895,0.016013256 L 8.7185884,-4.0017078 C 6.9730900,-1.6296469 6.9831476,1.6157441 8.7185878,4.0337352 z "
         transform="scale(1.1) rotate(180) translate(1,0)" />
    </marker>
    <marker
       inkscape:stockid="Arrow1Mend"
       orient="auto"
       refY="0.0"
       refX="0.0"
       id="Arrow1Mend"
       style="overflow:visible;">
      <path
         id="path3511"
         d="M 0.0,0.0 L 5.0,-5.0 L -12.5,0.0 L 5.0,5.0 L 0.0,0.0 z "
         style="fill-rule:evenodd;stroke:#000000;stroke-width:1.0pt;marker-start:none;"
         transform="scale(0.4) rotate(180) translate(10,0)" />
    </marker>
    <marker
       inkscape:stockid="Arrow1Lend"
       orient="auto"
       refY="0.0"
       refX="0.0"
       id="Arrow1Lend"
       style="overflow:visible;">
      <path
         id="path3505"
         d="M 0.0,0.0 L 5.0,-5.0 L -12.5,0.0 L 5.0,5.0 L 0.0,0.0 z "
         style="fill-rule:evenodd;stroke:#000000;stroke-width:1.0pt;marker-start:none;"
         transform="scale(0.8) rotate(180) translate(12.5,0)" />
    </marker>
    <marker
       inkscape:stockid="Arrow1Lstart"
       orient="auto"
       refY="0.0"
       refX="0.0"
       id="Arrow1Lstart"
       style="overflow:visible">
      <path
         id="path3502"
         d="M 0.0,0.0 L 5.0,-5.0 L -12.5,0.0 L 5.0,5.0 L 0.0,0.0 z "
         style="fill-rule:evenodd;stroke:#000000;stroke-width:1.0pt;marker-start:none"
         transform="scale(0.8) translate(12.5,0)" />
    </marker>
    <linearGradient
       id="linearGradient3491">
      <stop
         style="stop-color:#007679;stop-opacity:0.88659793;"
         offset="0"
         id="stop3493" />
      <stop
         id="stop3273"
         offset="0.5"
         style="stop-color:#7fbabc;stop-opacity:1;" />
      <stop
         style="stop-color:#ffffff;stop-opacity:1;"
         offset="1"
         id="stop3495" />
    </linearGradient>
    <linearGradient
       id="linearGradient3471">
      <stop
         style="stop-color:#00f079;stop-opacity:1;"
         offset="0"
         id="stop3473" />
      <stop
         style="stop-color:#000057;stop-opacity:1;"
         offset="1"
         id="stop3475" />
    </linearGradient>
    <pattern
       patternUnits="userSpaceOnUse"
       width="317.23785"
       height="283.41489"
       patternTransform="matrix(1.1273089,0,0,1.1273089,-68.397659,31.301778)"
       id="pattern3796">
      <image
         xlink:href="/home/eclesia/world.png"
         sodipodi:absref="/home/eclesia/world.png"
         width="317.23785"
         height="283.41489"
         id="image3793"
         x="0"
         y="0" />
    </pattern>
    <pattern
       patternUnits="userSpaceOnUse"
       width="317.23785"
       height="283.41489"
       patternTransform="translate(-68.397659,31.301777)"
       id="pattern3945">
      <rect
         id="rect3799"
         y="0"
         x="0"
         height="283.41489"
         width="317.23785"
         style="fill:url(#pattern3948);stroke:none" />
    </pattern>
    <linearGradient
       inkscape:collect="always"
       xlink:href="#linearGradient6470"
       id="linearGradient6476"
       x1="934.29132"
       y1="564.97046"
       x2="140.34419"
       y2="564.97046"
       gradientUnits="userSpaceOnUse"
       gradientTransform="translate(-8.0196681,114.28027)" />
    <linearGradient
       inkscape:collect="always"
       xlink:href="#linearGradient3582"
       id="linearGradient19276"
       x1="2017.835"
       y1="685.26672"
       x2="2263.3142"
       y2="-87.024567"
       gradientUnits="userSpaceOnUse"
       gradientTransform="translate(-72.904186,-104.90909)" />
    <filter
       inkscape:collect="always"
       x="-0.10731707"
       width="1.2146341"
       y="-0.10731707"
       height="1.2146341"
       id="filter24791">
      <feGaussianBlur
         inkscape:collect="always"
         stdDeviation="13.16459"
         id="feGaussianBlur24793" />
    </filter>
    <filter
       inkscape:collect="always"
       id="filter24795">
      <feGaussianBlur
         inkscape:collect="always"
         stdDeviation="5.8881622"
         id="feGaussianBlur24797" />
    </filter>
    <linearGradient
       inkscape:collect="always"
       xlink:href="#linearGradient3710"
       id="linearGradient3718"
       x1="2257.7139"
       y1="44.630932"
       x2="2483.3689"
       y2="44.630932"
       gradientUnits="userSpaceOnUse"
       gradientTransform="matrix(3.037465,-1.498357,1.498357,3.037465,-4970.4892,3542.2893)" />
    <filter
       inkscape:collect="always"
       id="filter4065">
      <feGaussianBlur
         inkscape:collect="always"
         stdDeviation="2.1325164"
         id="feGaussianBlur4067" />
    </filter>
    <linearGradient
       inkscape:collect="always"
       xlink:href="#linearGradient4131"
       id="linearGradient4137"
       x1="1525.1081"
       y1="234.55167"
       x2="2715.5509"
       y2="234.55167"
       gradientUnits="userSpaceOnUse" />
    <linearGradient
       inkscape:collect="always"
       xlink:href="#linearGradient4131"
       id="linearGradient4139"
       x1="1860.6085"
       y1="136.58789"
       x2="2510.6694"
       y2="181.95398"
       gradientUnits="userSpaceOnUse"
       gradientTransform="translate(12.759214,17.012285)" />
    <linearGradient
       inkscape:collect="always"
       xlink:href="#linearGradient4180"
       id="linearGradient4186"
       x1="1660.7141"
       y1="178.54185"
       x2="2362.2659"
       y2="245.17331"
       gradientUnits="userSpaceOnUse" />
    <linearGradient
       inkscape:collect="always"
       xlink:href="#linearGradient4188"
       id="linearGradient4194"
       x1="1506.5993"
       y1="196.42027"
       x2="2606.2323"
       y2="196.42027"
       gradientUnits="userSpaceOnUse"
       gradientTransform="translate(2.8353808,8.5061425)" />
    <filter
       inkscape:collect="always"
       id="filter4301">
      <feGaussianBlur
         inkscape:collect="always"
         stdDeviation="2.374432"
         id="feGaussianBlur4303" />
    </filter>
  </defs>
  <sodipodi:namedview
     inkscape:window-height="718"
     inkscape:window-width="1255"
     inkscape:pageshadow="2"
     inkscape:pageopacity="0.0"
     guidetolerance="10.0"
     gridtolerance="10.0"
     objecttolerance="10.0"
     borderopacity="1.0"
     bordercolor="#666666"
     pagecolor="#ffffff"
     id="base"
     inkscape:zoom="0.49877376"
     inkscape:cx="1954.1286"
     inkscape:cy="426.17052"
     inkscape:window-x="208"
     inkscape:window-y="247"
     inkscape:current-layer="svg3432" />
  <rect
     style="opacity:1;fill:url(#linearGradient19276);fill-opacity:1;fill-rule:evenodd;stroke:#000000;stroke-width:0.6;stroke-linecap:round;stroke-linejoin:round;stroke-miterlimit:4;stroke-dasharray:none;stroke-dashoffset:0;stroke-opacity:1"
     id="rect6510"
     width="958.35034"
     height="621.52429"
     x="1580.1001"
     y="-129.72818"
     inkscape:export-filename="F:\DEV\PUZZLE\graphics\puzzle_loading_screen3.png"
     inkscape:export-xdpi="46.906742"
     inkscape:export-ydpi="46.906742" />
  <rect
     style="opacity:0.27642278;fill:#ffffff;fill-opacity:1;fill-rule:evenodd;stroke:none;stroke-width:1;stroke-linecap:butt;stroke-linejoin:round;stroke-miterlimit:4;stroke-dasharray:none;stroke-dashoffset:3.6;stroke-opacity:1"
     id="rect4341"
     width="1096.6897"
     height="70.172096"
     x="1539.7762"
     y="436.65579" />
  <path
     style="opacity:0.27642278;fill:url(#linearGradient3718);fill-opacity:1;fill-rule:evenodd;stroke:#000000;stroke-width:1.80425084;stroke-linecap:round;stroke-linejoin:round;stroke-miterlimit:4;stroke-dasharray:none;stroke-opacity:1"
     d="M 1864.587,94.370894 L 1936.8074,217.75191 C 1983.6837,283.62907 1987.3977,197.45105 2025.8616,175.71516 C 2090.7254,166.11726 2144.152,235.97057 2098.8535,296.82275 C 2055.3299,315.70487 2025.3145,298.36087 2022.6483,349.55766 L 2137.0691,531.62511 C 2194.0324,485.57053 2217.696,468.37281 2286.3321,446.63718 C 2348.9976,457.06736 2317.815,493.21183 2347.3896,528.20147 C 2405.4461,570.55273 2467.7051,528.80512 2466.9334,463.55253 C 2456.2018,419.14547 2391.6846,424.68394 2425.648,376.02075 C 2482.7717,331.51246 2546.3762,314.73155 2601.4622,294.97191 C 2585.7183,230.60729 2545.1467,167.62723 2516.6989,103.95352 C 2510.8801,35.592017 2571.9767,74.432074 2607.3163,53.573924 C 2660.2753,-3.294422 2640.292,-97.513559 2535.9287,-83.468569 C 2496.7335,-68.607039 2492.5609,11.188894 2443.099,-45.248144 L 2364.0784,-174.73949 L 2162.4028,-84.719229 C 2070.9265,-76.936089 2139.4904,-151.15964 2111.3333,-188.24697 C 2054.0979,-252.1459 1943.1734,-200.11923 1956.0418,-111.64287 C 1975.5999,-69.177139 2066.5006,-75.590559 2020.0215,-8.804857 L 1864.587,94.370894 z "
     id="path3441"
     sodipodi:nodetypes="ccccccccccccccccccccc"
     inkscape:export-filename="/home/eclesia/puzzle.png"
     inkscape:export-xdpi="90"
     inkscape:export-ydpi="90" />
  <path
     style="opacity:1;fill:url(#linearGradient4137);fill-opacity:1.0;fill-rule:evenodd;stroke:none;stroke-width:1.79999995;stroke-linecap:butt;stroke-linejoin:round;stroke-miterlimit:4;stroke-dasharray:none;stroke-dashoffset:3.6;stroke-opacity:1"
     id="path4107"
     d="M 1545.4873,181.14964 C 1558.3289,179.46403 1571.082,176.86898 1583.8752,174.74552 C 1614.4397,170.1103 1645.2876,168.10561 1676.1434,166.75699 C 1712.8618,164.88261 1749.6172,164.29752 1786.3693,165.18855 C 1825.2024,166.09477 1863.8322,170.27 1902.3179,175.27109 C 1935.0706,179.66649 1967.5992,185.52485 2000.0689,191.62802 C 2027.2604,196.76769 2054.0149,203.82938 2080.4205,212.05215 C 2106.2536,220.36304 2131.6877,229.84583 2157.3243,238.73578 C 2191.8862,250.90144 2227.005,261.22755 2262.5472,270.07995 C 2304.8659,280.30234 2347.9183,286.45338 2391.2517,290.1023 C 2436.227,293.72824 2481.3258,292.84759 2526.3285,290.50491 C 2568.0394,288.25384 2609.5887,283.76355 2650.8597,277.38107 C 2672.7,273.87891 2694.2034,268.75949 2715.5509,263.04025 L 2698.2128,276.33017 C 2677.0206,281.77599 2655.6942,286.71699 2634.0397,289.98912 C 2592.9905,295.97767 2551.698,300.1722 2510.2604,302.30547 C 2465.1161,304.59144 2419.878,305.53542 2374.7636,301.8695 C 2331.2988,298.14726 2288.181,291.67266 2245.6705,281.73082 C 2209.7425,273.02174 2174.2167,262.84465 2139.1786,251.02744 C 2113.3774,242.33722 2087.8008,232.99034 2061.8707,224.68843 C 2035.6805,216.45979 2009.165,209.25015 1982.1755,204.1222 C 1949.9492,197.94133 1917.6722,191.95607 1885.17,187.39111 C 1846.7759,182.30369 1808.2262,178.096 1769.4618,177.41863 C 1732.6372,176.77033 1695.8129,177.36021 1659.0295,179.31452 C 1627.7861,180.89323 1596.5457,183.17647 1565.6745,188.45964 C 1552.1612,190.96744 1538.7388,194.28286 1525.1081,195.95601 L 1545.4873,181.14964 z " />
  <path
     style="opacity:1;fill:url(#linearGradient4139);fill-opacity:1;fill-rule:evenodd;stroke:none;stroke-width:1.79999995;stroke-linecap:butt;stroke-linejoin:round;stroke-miterlimit:4;stroke-dasharray:none;stroke-dashoffset:3.6;stroke-opacity:1"
     id="path4109"
     d="M 1518.3651,225.41431 C 1529.1974,226.5794 1540.0183,227.873 1550.8204,229.30662 C 1581.1848,233.98479 1611.5919,238.24223 1642.1167,241.73055 C 1678.0082,245.595 1714.0953,246.91332 1750.1731,246.6158 C 1781.2251,246.12024 1811.9526,241.64688 1842.3406,235.55823 C 1872.6902,228.88562 1902.6554,220.62199 1932.6676,212.60199 C 1969.975,201.78698 2008.046,194.32299 2046.3674,188.22885 C 2093.1387,181.31416 2140.4443,179.89604 2187.6368,178.91317 C 2238.6234,178.07813 2289.6089,178.18447 2340.5674,180.08346 C 2409.3013,183.27022 2478.0501,185.99961 2546.8559,186.78273 C 2599.8513,186.41849 2573.1631,186.76394 2626.9202,185.73216 L 2614.2687,194.96441 C 2560.1668,196.18292 2587.0519,195.71154 2533.6134,196.38852 C 2464.1711,196.11536 2394.8177,193.05978 2325.4125,191.0258 C 2274.196,189.89617 2222.9708,189.41904 2171.7465,190.51055 C 2124.4673,191.56316 2077.0649,193.09852 2030.2486,200.34181 C 1991.5674,206.7755 1953.1809,214.69311 1915.5244,225.75673 C 1885.4186,233.85288 1855.3493,242.17442 1824.8714,248.78054 C 1794.5312,254.73768 1763.8382,258.97389 1732.8561,259.21052 C 1696.8077,259.27047 1660.7676,257.68147 1624.9003,253.94918 C 1593.8689,250.57174 1562.9401,246.41804 1531.9514,242.6898 C 1520.5404,241.58371 1509.1159,240.6828 1497.6797,239.92731 L 1518.3651,225.41431 z " />
  <rect
     style="opacity:1;fill:none;fill-opacity:1;fill-rule:evenodd;stroke:#ffffff;stroke-width:41.23720932;stroke-linecap:butt;stroke-linejoin:round;stroke-miterlimit:4;stroke-dasharray:none;stroke-dashoffset:3.6;stroke-opacity:1"
     id="rect3592"
     width="268.83505"
     height="11.385272"
     x="1583.5383"
     y="194.20172" />
  <text
     xml:space="preserve"
     style="font-size:18px;font-style:normal;font-weight:normal;text-align:center;text-anchor:middle;fill:#ffffff;fill-opacity:1;stroke:none;stroke-width:1px;stroke-linecap:butt;stroke-linejoin:miter;stroke-opacity:1;font-family:Bitstream Vera Sans"
     x="2060.7349"
     y="459.08844"
     id="text3698"><tspan
       sodipodi:role="line"
       x="2063.6001"
       y="459.08844"
       id="tspan3702">Puzzle-GIS is based on NetBeans6.5 Platform. This project is under GNU General Public License version 3 </tspan><tspan
       sodipodi:role="line"
       x="2060.7349"
       y="481.58844"
       id="tspan4075">with Classpath exception (GPL+CE). For more information, please visit http://puzzle-gis.codehaus.org.</tspan></text>
  <path
     style="fill:none;fill-rule:evenodd;stroke:#000000;stroke-width:1.79999995;stroke-linecap:butt;stroke-linejoin:miter;marker-end:url(#Arrow2Lend);stroke-miterlimit:4;stroke-dasharray:none;stroke-opacity:1"
     d="M 1602.3194,200.47666 L 1633.5086,200.47666"
     id="path3724" />
  <path
     style="opacity:0.90243901;fill:url(#linearGradient4194);fill-opacity:1;fill-rule:evenodd;stroke:none;stroke-width:1.79999995;stroke-linecap:butt;stroke-linejoin:round;stroke-miterlimit:4;stroke-dasharray:none;stroke-dashoffset:3.6;stroke-opacity:1"
     id="path4178"
     d="M 1529.6323,142.54716 C 1539.6419,141.79707 1549.7018,142.0952 1559.7242,142.36489 C 1590.5591,143.15659 1621.3601,144.942 1652.1174,147.22106 C 1688.547,149.8281 1724.7925,154.59813 1760.5909,161.79794 C 1800.0358,169.94706 1838.5355,181.94137 1876.3691,195.63688 C 1924.1443,215.1797 1971.8797,234.13891 2021.7878,247.51859 C 2079.2503,260.34807 2138.5929,258.63171 2196.8108,252.88778 C 2234.6316,248.34527 2271.8018,239.93269 2308.6945,230.65243 C 2333.5967,224.36277 2358.618,218.59887 2383.735,213.23828 C 2409.6769,207.90808 2435.3643,201.40595 2461.0587,195.00615 C 2486.5383,188.44859 2512.1608,182.51868 2538.0069,177.6015 C 2561.4601,173.31769 2585.2959,172.25763 2609.0677,171.43423 L 2591.4606,184.32972 C 2567.6191,185.32859 2543.7224,186.6043 2520.2226,191.04672 C 2494.4046,196.07702 2468.7902,202.02182 2443.3143,208.56944 C 2417.5934,214.92323 2391.8975,221.42594 2365.939,226.75404 C 2340.9701,232.18529 2316.0967,238.02381 2291.2484,243.98108 C 2254.8562,252.69281 2218.1625,260.43218 2180.9404,264.63959 C 2122.9344,269.45292 2063.7731,269.80385 2006.5601,257.98592 C 1956.2008,244.5762 1907.7572,225.82233 1859.0929,207.2929 C 1821.3297,193.57777 1783.0165,181.25813 1743.4689,173.74613 C 1707.5647,167.11362 1671.3897,161.88705 1634.9274,159.52379 C 1603.6393,157.36663 1572.2888,155.7891 1540.9155,156.00826 C 1530.4188,156.12208 1519.8422,156.13097 1509.4347,157.66405 L 1529.6323,142.54716 z " />
  <text
     xml:space="preserve"
     style="font-size:64px;font-style:normal;font-variant:normal;font-weight:bold;font-stretch:normal;text-align:start;line-height:125%;writing-mode:lr-tb;text-anchor:start;fill:#131623;fill-opacity:1;stroke:none;stroke-width:1px;stroke-linecap:butt;stroke-linejoin:miter;stroke-opacity:1;font-family:Impact"
     x="1619.1556"
     y="138.86989"
     id="text4280"
     transform="scale(0.9885784,1.0115536)"
     sodipodi:linespacing="125%"><tspan
       sodipodi:role="line"
       x="1619.1556"
       y="138.86989"
       id="tspan2221"
       style="font-size:64px;font-style:normal;font-weight:bold;writing-mode:lr-tb;fill:#131623;fill-opacity:1;font-family:Impact">Puzzle-</tspan></text>
  <path
     style="opacity:1;fill:url(#linearGradient4186);fill-opacity:1.0;fill-rule:evenodd;stroke:none;stroke-width:1.79999995;stroke-linecap:butt;stroke-linejoin:round;stroke-miterlimit:4;stroke-dasharray:none;stroke-dashoffset:3.6;stroke-opacity:1"
     id="path4176"
     d="M 1562.3135,235.33814 C 1571.2247,236.83692 1580.2204,237.713 1589.2253,238.42083 C 1605.9104,239.94189 1622.6534,240.75273 1639.4061,240.74866 C 1655.9433,240.70907 1672.2963,238.60979 1688.4237,235.08916 C 1705.3369,230.79972 1721.917,225.40618 1738.4466,219.85584 C 1758.8836,212.43733 1779.5504,205.91888 1800.571,200.37019 C 1845.5583,188.9586 1891.5539,181.94871 1937.5194,175.85561 C 2012.594,166.09866 2087.9263,162.00105 2163.4439,167.24069 C 2236.0781,175.68776 2307.6728,191.04819 2379.458,204.6694 C 2429.281,214.64454 2479.8844,219.26359 2530.6259,220.22516 C 2537.8294,220.07627 2545.0329,219.92738 2552.2364,219.77849 L 2535.8141,231.74535 C 2528.6989,231.79805 2521.5837,231.85075 2514.4686,231.90345 C 2463.9719,230.36717 2413.5326,225.76174 2364.0097,215.42717 C 2293.3853,200.12478 2222.7657,183.61686 2150.7461,176.33942 C 2074.5701,171.60953 1998.5321,175.69784 1922.9693,186.73888 C 1876.0646,193.6317 1829.134,201.26715 1783.3087,213.63246 C 1761.9334,219.71259 1740.9347,226.82932 1719.9775,234.20848 C 1703.3665,239.75545 1686.6901,245.13113 1669.6732,249.31993 C 1653.4538,252.65622 1637.0432,254.63243 1620.4521,254.51005 C 1603.5618,254.39511 1586.6913,253.54791 1569.8484,252.28442 C 1560.4274,251.64831 1551.0164,250.86707 1541.6281,249.85114 L 1562.3135,235.33814 z " />
  <text
     xml:space="preserve"
     style="font-size:32px;font-style:normal;font-variant:normal;font-weight:300;font-stretch:normal;text-align:start;line-height:100%;writing-mode:lr-tb;text-anchor:start;fill:#000000;fill-opacity:1;stroke:none;stroke-width:1px;stroke-linecap:butt;stroke-linejoin:miter;stroke-opacity:1;font-family:URW Bookman L"
     x="1660.0281"
     y="210.38774"
     id="text6506"
     sodipodi:linespacing="100%"><tspan
       sodipodi:role="line"
       id="tspan6508"
       x="1660.0281"
       y="210.38774">MileStone1</tspan></text>
  <path
     sodipodi:type="arc"
     style="opacity:0.34146341;fill:#ffffff;fill-opacity:1;fill-rule:evenodd;stroke:none;stroke-width:1.79999995;stroke-linecap:butt;stroke-linejoin:round;stroke-miterlimit:4;stroke-dasharray:none;stroke-dashoffset:3.6;stroke-opacity:1;filter:url(#filter4301)"
     id="path4218"
     sodipodi:cx="2081.1694"
     sodipodi:cy="14.176903"
     sodipodi:rx="48.201473"
     sodipodi:ry="46.783783"
     d="M 2129.3709 14.176903 A 48.201473 46.783783 0 1 1  2032.968,14.176903 A 48.201473 46.783783 0 1 1  2129.3709 14.176903 z"
     transform="matrix(1,0,0,1.0151515,258.93357,-85.641083)" />
  <path
     sodipodi:type="arc"
     style="opacity:0.3414634;fill:#ffffff;fill-opacity:1;fill-rule:evenodd;stroke:none;stroke-width:1.79999995;stroke-linecap:butt;stroke-linejoin:round;stroke-miterlimit:4;stroke-dasharray:none;stroke-dashoffset:3.6;stroke-opacity:1;filter:url(#filter4301)"
     id="path4305"
     sodipodi:cx="2081.1694"
     sodipodi:cy="14.176903"
     sodipodi:rx="48.201473"
     sodipodi:ry="46.783783"
     d="M 2129.3709 14.176903 A 48.201473 46.783783 0 1 1  2032.968,14.176903 A 48.201473 46.783783 0 1 1  2129.3709 14.176903 z"
     transform="matrix(0.8358209,0,0,0.8484848,608.15667,23.191004)" />
  <path
     sodipodi:type="arc"
     style="opacity:0.34146341;fill:#ffffff;fill-opacity:1;fill-rule:evenodd;stroke:none;stroke-width:1.79999995;stroke-linecap:butt;stroke-linejoin:round;stroke-miterlimit:4;stroke-dasharray:none;stroke-dashoffset:3.6;stroke-opacity:1;filter:url(#filter4301)"
     id="path4307"
     sodipodi:cx="2081.1694"
     sodipodi:cy="14.176903"
     sodipodi:rx="48.201473"
     sodipodi:ry="46.783783"
     d="M 2129.3709 14.176903 A 48.201473 46.783783 0 1 1  2032.968,14.176903 A 48.201473 46.783783 0 1 1  2129.3709 14.176903 z"
     transform="matrix(0.6567164,0,0,0.6666667,887.65363,77.006984)" />
  <path
     sodipodi:type="arc"
     style="opacity:0.34146341;fill:#ffffff;fill-opacity:1;fill-rule:evenodd;stroke:none;stroke-width:1.79999995;stroke-linecap:butt;stroke-linejoin:round;stroke-miterlimit:4;stroke-dasharray:none;stroke-dashoffset:3.6;stroke-opacity:1;filter:url(#filter4301)"
     id="path4309"
     sodipodi:cx="2081.1694"
     sodipodi:cy="14.176903"
     sodipodi:rx="48.201473"
     sodipodi:ry="46.783783"
     d="M 2129.3709 14.176903 A 48.201473 46.783783 0 1 1  2032.968,14.176903 A 48.201473 46.783783 0 1 1  2129.3709 14.176903 z"
     transform="matrix(0.4477612,0,0,0.4545454,1220.3031,54.495774)" />
  <path
     sodipodi:type="arc"
     style="opacity:0.34146341;fill:#ffffff;fill-opacity:1;fill-rule:evenodd;stroke:none;stroke-width:1.79999995;stroke-linecap:butt;stroke-linejoin:round;stroke-miterlimit:4;stroke-dasharray:none;stroke-dashoffset:3.6;stroke-opacity:1;filter:url(#filter4301)"
     id="path4311"
     sodipodi:cx="2081.1694"
     sodipodi:cy="14.176903"
     sodipodi:rx="48.201473"
     sodipodi:ry="46.783783"
     d="M 2129.3709 14.176903 A 48.201473 46.783783 0 1 1  2032.968,14.176903 A 48.201473 46.783783 0 1 1  2129.3709 14.176903 z"
     transform="matrix(0.2647059,0,0,0.2687165,1522.9819,19.040244)" />
  <text
     xml:space="preserve"
     style="font-size:64px;font-style:normal;font-variant:normal;font-weight:bold;font-stretch:normal;text-align:start;line-height:125%;writing-mode:lr-tb;text-anchor:start;fill:#ffffff;fill-opacity:1;stroke:none;stroke-width:1px;stroke-linecap:butt;stroke-linejoin:miter;stroke-opacity:1;font-family:Impact"
     x="1799.5621"
     y="141.45442"
     id="text4333"
     transform="scale(0.9885784,1.0115536)"
     sodipodi:linespacing="125%"><tspan
       sodipodi:role="line"
       x="1799.5621"
       y="141.45442"
       id="tspan4335"
       style="font-size:64px;font-style:normal;font-weight:bold;writing-mode:lr-tb;fill:#ffffff;fill-opacity:1;font-family:Impact">GIS</tspan></text>
  <text
     xml:space="preserve"
     style="font-size:60.68098068px;font-style:normal;font-variant:normal;font-weight:normal;font-stretch:normal;text-align:start;line-height:125%;writing-mode:lr-tb;text-anchor:start;fill:#ffffff;fill-opacity:1;stroke:none;stroke-width:1px;stroke-linecap:butt;stroke-linejoin:miter;stroke-opacity:1;font-family:Impact"
     x="2290.9026"
     y="118.00512"
     id="text4337"
     transform="scale(0.8161852,1.2252121)"
     sodipodi:linespacing="125%"><tspan
       sodipodi:role="line"
       x="2290.9026"
       y="118.00512"
       id="tspan4339"
       style="font-size:60.68098068px;font-style:normal;font-weight:normal;writing-mode:lr-tb;fill:#ffffff;fill-opacity:1;font-family:Trebuchet MS">1.0</tspan></text>
</svg>
