<?xml version="1.0" encoding="UTF-8" standalone="no"?>
<!-- Created with Inkscape (http://www.inkscape.org/) -->
<svg
   xmlns:dc="http://purl.org/dc/elements/1.1/"
   xmlns:cc="http://creativecommons.org/ns#"
   xmlns:rdf="http://www.w3.org/1999/02/22-rdf-syntax-ns#"
   xmlns:svg="http://www.w3.org/2000/svg"
   xmlns="http://www.w3.org/2000/svg"
   xmlns:xlink="http://www.w3.org/1999/xlink"
   xmlns:sodipodi="http://sodipodi.sourceforge.net/DTD/sodipodi-0.dtd"
   xmlns:inkscape="http://www.inkscape.org/namespaces/inkscape"
   version="1.0"
   width="524.05078"
   height="525.11597"
   id="svg2"
   sodipodi:version="0.32"
   inkscape:version="0.46"
   sodipodi:docname="stepsImage.svg"
   inkscape:output_extension="org.inkscape.output.svg.inkscape">
  <metadata
     id="metadata24">
    <rdf:RDF>
      <cc:Work
         rdf:about="">
        <dc:format>image/svg+xml</dc:format>
        <dc:type
           rdf:resource="http://purl.org/dc/dcmitype/StillImage" />
      </cc:Work>
    </rdf:RDF>
  </metadata>
  <sodipodi:namedview
     inkscape:window-height="967"
     inkscape:window-width="1680"
     inkscape:pageshadow="2"
     inkscape:pageopacity="0.0"
     guidetolerance="10.0"
     gridtolerance="10.0"
     objecttolerance="10.0"
     borderopacity="1.0"
     bordercolor="#666666"
     pagecolor="#ffffff"
     id="base"
     showgrid="false"
     inkscape:zoom="0.87980566"
     inkscape:cx="10.265246"
     inkscape:cy="262.55798"
     inkscape:window-x="0"
     inkscape:window-y="30"
     inkscape:current-layer="svg2" />
  <defs
     id="defs4">
    <linearGradient
       id="linearGradient5051">
      <stop
         style="stop-color:#021613;stop-opacity:1;"
         offset="0"
         id="stop5053" />
      <stop
         id="stop5059"
         offset="0.08940452"
         style="stop-color:#003944;stop-opacity:1;" />
      <stop
         id="stop5055"
         offset="0.32466346"
         style="stop-color:#7fafad;stop-opacity:1;" />
      <stop
         style="stop-color:#ffffff;stop-opacity:1;"
         offset="1"
         id="stop5057" />
    </linearGradient>
    <linearGradient
       inkscape:collect="always"
       xlink:href="#linearGradient5051"
       id="linearGradient19276"
       x1="1652.4163"
       y1="651.20648"
       x2="2028.2762"
       y2="116.8168"
       gradientUnits="userSpaceOnUse"
       gradientTransform="matrix(0.1859652,0,0,0.714902,-356.16143,14.945444)" />
    <filter
       inkscape:collect="always"
       id="filter3657"
       x="-0.11860754"
       width="1.2372151"
       y="-0.1222017"
       height="1.2444034">
      <feGaussianBlur
         inkscape:collect="always"
         stdDeviation="4.764215"
         id="feGaussianBlur3659" />
    </filter>
    <filter
       inkscape:collect="always"
       id="filter3661">
      <feGaussianBlur
         inkscape:collect="always"
         stdDeviation="2.8164916"
         id="feGaussianBlur3663" />
    </filter>
    <filter
       inkscape:collect="always"
       id="filter3665">
      <feGaussianBlur
         inkscape:collect="always"
         stdDeviation="1.9203351"
         id="feGaussianBlur3667" />
    </filter>
    <filter
       inkscape:collect="always"
       id="filter3697">
      <feGaussianBlur
         inkscape:collect="always"
         stdDeviation="2.374432"
         id="feGaussianBlur3699" />
    </filter>
    <linearGradient
       inkscape:collect="always"
       id="linearGradient4180">
      <stop
         style="stop-color:#ffffff;stop-opacity:1;"
         offset="0"
         id="stop4182" />
      <stop
         style="stop-color:#ffffff;stop-opacity:0;"
         offset="1"
         id="stop4184" />
    </linearGradient>
    <linearGradient
       inkscape:collect="always"
       xlink:href="#linearGradient4180"
       id="linearGradient5144"
       gradientUnits="userSpaceOnUse"
       x1="1660.7141"
       y1="178.54185"
       x2="2362.2659"
       y2="245.17331" />
    <linearGradient
       inkscape:collect="always"
       id="linearGradient4188">
      <stop
         style="stop-color:#ffffff;stop-opacity:1;"
         offset="0"
         id="stop4190" />
      <stop
         style="stop-color:#ffffff;stop-opacity:0;"
         offset="1"
         id="stop4192" />
    </linearGradient>
    <linearGradient
       inkscape:collect="always"
       xlink:href="#linearGradient4188"
       id="linearGradient5142"
       gradientUnits="userSpaceOnUse"
       gradientTransform="translate(2.8353808,8.5061425)"
       x1="1506.5993"
       y1="196.42027"
       x2="2606.2323"
       y2="196.42027" />
    <linearGradient
       inkscape:collect="always"
       xlink:href="#linearGradient4131"
       id="linearGradient5140"
       gradientUnits="userSpaceOnUse"
       gradientTransform="translate(12.759214,17.012285)"
       x1="1860.6085"
       y1="136.58789"
       x2="2510.6694"
       y2="181.95398" />
    <linearGradient
       inkscape:collect="always"
       id="linearGradient4131">
      <stop
         style="stop-color:#ffffff;stop-opacity:1;"
         offset="0"
         id="stop4133" />
      <stop
         style="stop-color:#ffffff;stop-opacity:0;"
         offset="1"
         id="stop4135" />
    </linearGradient>
    <linearGradient
       inkscape:collect="always"
       xlink:href="#linearGradient4131"
       id="linearGradient5138"
       gradientUnits="userSpaceOnUse"
       x1="1525.1081"
       y1="234.55167"
       x2="2715.5509"
       y2="234.55167" />
    <linearGradient
       inkscape:collect="always"
       xlink:href="#linearGradient3567"
       id="linearGradient5136"
       gradientUnits="userSpaceOnUse"
       gradientTransform="matrix(0.8436065,0,0,1,166.4992,318.3598)"
       x1="1497.6797"
       y1="223.19794"
       x2="2171.0649"
       y2="234.55168" />
    <linearGradient
       inkscape:collect="always"
       xlink:href="#linearGradient3567"
       id="linearGradient5134"
       gradientUnits="userSpaceOnUse"
       gradientTransform="matrix(0.8436065,0,0,1,166.4992,318.3598)"
       x1="1497.6797"
       y1="223.19794"
       x2="2171.0649"
       y2="234.55168" />
    <linearGradient
       inkscape:collect="always"
       xlink:href="#linearGradient3567"
       id="linearGradient5132"
       gradientUnits="userSpaceOnUse"
       gradientTransform="matrix(0.8436065,0,0,1,166.4992,318.3598)"
       x1="1497.6797"
       y1="223.19794"
       x2="2171.0649"
       y2="234.55168" />
    <linearGradient
       inkscape:collect="always"
       id="linearGradient3567">
      <stop
         style="stop-color:#000000;stop-opacity:1;"
         offset="0"
         id="stop3569" />
      <stop
         style="stop-color:#000000;stop-opacity:0;"
         offset="1"
         id="stop3571" />
    </linearGradient>
    <linearGradient
       inkscape:collect="always"
       xlink:href="#linearGradient3567"
       id="linearGradient5130"
       gradientUnits="userSpaceOnUse"
       gradientTransform="matrix(0.8436065,0,0,1,166.4992,318.3598)"
       x1="1497.6797"
       y1="223.19794"
       x2="2214.7583"
       y2="194.84413" />
    <filter
       inkscape:collect="always"
       id="filter3685">
      <feGaussianBlur
         inkscape:collect="always"
         stdDeviation="2.974138"
         id="feGaussianBlur3687" />
    </filter>
    <inkscape:perspective
       sodipodi:type="inkscape:persp3d"
       inkscape:vp_x="0 : 262.55798 : 1"
       inkscape:vp_y="0 : 1000 : 0"
       inkscape:vp_z="524.05078 : 262.55798 : 1"
       inkscape:persp3d-origin="262.02539 : 175.03866 : 1"
       id="perspective26" />
    <filter
       inkscape:collect="always"
       id="filter3835"
       x="-0.11993176"
       width="1.2398635"
       y="-0.12006831"
       height="1.2401366">
      <feGaussianBlur
         inkscape:collect="always"
         stdDeviation="17.466501"
         id="feGaussianBlur3837" />
    </filter>
  </defs>
  <g
     transform="matrix(0.3354261,0.281104,-0.281104,0.3354261,131.44273,79.571026)"
     id="g3017"
     inkscape:export-filename="/home/eclesia/dev/puzzle/trunk/puzzle/pz_core/src/org/puzzle/core/project/boussole100.png"
     inkscape:export-xdpi="25.170401"
     inkscape:export-ydpi="25.170401"
     style="opacity:0.18042813;fill:#000000;fill-opacity:1;filter:url(#filter3835)">
    <g
       transform="matrix(0.8,0,0,0.8,54.285712,134.47243)"
       id="g3019"
       style="fill:#000000;fill-opacity:1" />
    <path
       d="M 196.875,602.8125 L 252.69844,674.61913 L 196.875,744.875 L 270.11564,692.42656 L 338.9375,744.875 L 291.46875,673.84375 L 338.9375,602.8125 L 270.18829,656.15038 L 196.875,602.8125 z"
       id="path3021"
       style="fill:#000000;fill-opacity:1;stroke:none;stroke-width:700;stroke-linecap:round;stroke-linejoin:round;stroke-miterlimit:4;stroke-dashoffset:0;stroke-opacity:1" />
    <path
       d="M 363.57144,669.50507 C 363.57144,721.97212 321.03849,764.50507 268.57144,764.50507 C 216.10439,764.50507 173.57144,721.97212 173.57144,669.50507 C 173.57144,617.03802 216.10439,574.50507 268.57144,574.50507 C 321.03849,574.50507 363.57144,617.03802 363.57144,669.50507 z"
       transform="matrix(0.7360905,0.3133223,-0.3133223,0.7360905,283.50653,96.539361)"
       id="path3023"
       style="fill:#000000;fill-opacity:1;stroke:#000000;stroke-width:18.74999808999999829;stroke-linecap:butt;stroke-linejoin:miter;stroke-miterlimit:4;stroke-dasharray:4.68749968000000017, 4.68749968000000017;stroke-dashoffset:0;stroke-opacity:1" />
    <path
       d="M 363.57144,669.50507 C 363.57144,721.97212 321.03849,764.50507 268.57144,764.50507 C 216.10439,764.50507 173.57144,721.97212 173.57144,669.50507 C 173.57144,617.03802 216.10439,574.50507 268.57144,574.50507 C 321.03849,574.50507 363.57144,617.03802 363.57144,669.50507 z"
       transform="matrix(0.7107944,-8.9478723e-2,8.9478723e-2,0.7107944,20.623071,221.65589)"
       id="path3025"
       style="fill:#000000;fill-opacity:1;stroke:#000000;stroke-width:12.56273842000000052;stroke-linecap:butt;stroke-linejoin:miter;stroke-miterlimit:4;stroke-dasharray:150.75285830000001397, 150.75285830000001397;stroke-dashoffset:0;stroke-opacity:1" />
    <path
       d="M 253.84375,657.21875 L 142.6875,672.375 L 253.84375,697.5 L 271.4375,687.15625 L 289.03125,697.5 L 400.15625,672.375 L 289.03125,657.21875 L 271.4375,657.5625 L 253.84375,657.21875 z"
       id="path3027"
       style="fill:#000000;fill-opacity:1;stroke:none;stroke-width:700;stroke-linecap:round;stroke-linejoin:round;stroke-miterlimit:4;stroke-dashoffset:0;stroke-opacity:1" />
    <path
       d="M 154.20053,672.55742 L 250.78445,695.20781 L 271.44419,684.90625 L 292.07268,695.20781 L 381.58553,673.56758 L 271.44419,667.10714 L 154.20053,672.55742 z"
       id="path3029"
       style="fill:#000000;fill-opacity:1;stroke:none;stroke-width:700;stroke-linecap:round;stroke-linejoin:round;stroke-miterlimit:4;stroke-dashoffset:0;stroke-opacity:1" />
    <path
       d="M 246.29148,686.01932 L 271.42856,835.15641 L 296.56564,686.01932 L 271.42856,643.28224 L 246.29148,686.01932 z"
       id="path3031"
       style="fill:#000000;fill-opacity:1;stroke:none;stroke-width:700;stroke-linecap:round;stroke-linejoin:round;stroke-miterlimit:4;stroke-dashoffset:0;stroke-opacity:1" />
    <path
       d="M 250.23376,690.71646 L 270.34342,819.62613 L 261.5388,691.85932 L 270.34342,656.5268 L 250.23376,690.71646 z"
       id="path3033"
       style="fill:#000000;fill-opacity:1;stroke:none;stroke-width:700;stroke-linecap:round;stroke-linejoin:round;stroke-miterlimit:4;stroke-dashoffset:0;stroke-opacity:1" />
    <path
       d="M 240.00721,674.93363 L 271.42856,449.51226 L 302.84991,674.93363 L 271.42856,728.35498 L 240.00721,674.93363 z"
       id="path3035"
       style="fill:#000000;fill-opacity:1;stroke:#000000;stroke-width:2;stroke-linecap:round;stroke-linejoin:round;stroke-miterlimit:4;stroke-dasharray:none;stroke-dashoffset:0;stroke-opacity:1" />
    <text
       x="248.62434"
       y="457.26138"
       id="text3037"
       xml:space="preserve"
       style="font-size:64px;font-style:normal;font-variant:normal;font-weight:normal;font-stretch:normal;fill:#000000;fill-opacity:1;stroke:none;stroke-width:1px;stroke-linecap:butt;stroke-linejoin:miter;stroke-opacity:1;font-family:Nimbus Roman No9 L;-inkscape-font-specification:Nimbus Roman No9 L"><tspan
         x="248.62434"
         y="457.26138"
         id="tspan3039"
         style="fill:#000000;fill-opacity:1">N</tspan></text>
    <text
       x="-282.71637"
       y="-836.79675"
       transform="scale(-1,-1)"
       id="text3041"
       xml:space="preserve"
       style="font-size:40px;font-style:normal;font-variant:normal;font-weight:normal;font-stretch:normal;fill:#000000;fill-opacity:1;stroke:none;stroke-width:1px;stroke-linecap:butt;stroke-linejoin:miter;stroke-opacity:1;font-family:Nimbus Roman No9 L;-inkscape-font-specification:Nimbus Roman No9 L"><tspan
         x="-282.71637"
         y="-836.79675"
         id="tspan3043"
         style="fill:#000000;fill-opacity:1">S</tspan></text>
    <text
       x="660.0451"
       y="-401.82254"
       transform="matrix(0,1,-1,0,0,0)"
       id="text3045"
       xml:space="preserve"
       style="font-size:40px;font-style:normal;font-variant:normal;font-weight:normal;font-stretch:normal;fill:#000000;fill-opacity:1;stroke:none;stroke-width:1px;stroke-linecap:butt;stroke-linejoin:miter;stroke-opacity:1;font-family:Nimbus Roman No9 L;-inkscape-font-specification:Nimbus Roman No9 L"><tspan
         x="660.0451"
         y="-401.82254"
         id="tspan3047"
         style="fill:#000000;fill-opacity:1">E</tspan></text>
    <text
       x="-692.1051"
       y="144.60106"
       transform="matrix(0,-1,1,0,0,0)"
       id="text3049"
       xml:space="preserve"
       style="font-size:40px;font-style:normal;font-variant:normal;font-weight:normal;font-stretch:normal;fill:#000000;fill-opacity:1;stroke:none;stroke-width:1px;stroke-linecap:butt;stroke-linejoin:miter;stroke-opacity:1;font-family:Nimbus Roman No9 L;-inkscape-font-specification:Nimbus Roman No9 L"><tspan
         x="-692.1051"
         y="144.60106"
         id="tspan3051"
         style="fill:#000000;fill-opacity:1">W</tspan></text>
  </g>
  <rect
     style="opacity:1;fill:url(#linearGradient19276);fill-opacity:1;fill-rule:evenodd;stroke:none;stroke-width:0.21877129000000001;stroke-linecap:round;stroke-linejoin:round;stroke-miterlimit:4;stroke-dasharray:none;stroke-dashoffset:0;stroke-opacity:1"
     id="rect6510"
     width="178.21986"
     height="444.32883"
     x="-48.760124"
     y="-2.7977672"
     inkscape:export-filename="/home/eclesia/dev/puzzle/trunk/puzzle/pz_core/src/org/puzzle/core/project/steps.png"
     inkscape:export-xdpi="65.649239"
     inkscape:export-ydpi="65.649239" />
  <rect
     width="524.05078"
     height="525.11597"
     x="0"
     y="0"
     id="rect2473"
     style="opacity:1;fill:none;fill-opacity:1;stroke:none;stroke-width:15;stroke-linecap:butt;stroke-linejoin:miter;stroke-miterlimit:4;stroke-dasharray:3.75, 3.75;stroke-dashoffset:0;stroke-opacity:1" />
  <g
     transform="matrix(0.3112299,0.3076785,-0.3076785,0.3112299,446.43347,131.46957)"
     id="layer1"
     inkscape:export-filename="/home/eclesia/dev/puzzle/trunk/puzzle/pz_core/src/org/puzzle/core/project/boussole100.png"
     inkscape:export-xdpi="25.170401"
     inkscape:export-ydpi="25.170401"
     style="opacity:0.18042812">
    <g
       transform="matrix(0.8,0,0,0.8,54.285712,134.47243)"
       id="g3182" />
    <path
       d="M 196.875,602.8125 L 252.69844,674.61913 L 196.875,744.875 L 270.11564,692.42656 L 338.9375,744.875 L 291.46875,673.84375 L 338.9375,602.8125 L 270.18829,656.15038 L 196.875,602.8125 z"
       id="path3331"
       style="fill:#000100;fill-opacity:1;stroke:none;stroke-width:700;stroke-linecap:round;stroke-linejoin:round;stroke-miterlimit:4;stroke-dashoffset:0;stroke-opacity:1" />
    <path
       d="M 363.57144,669.50507 C 363.57144,721.97212 321.03849,764.50507 268.57144,764.50507 C 216.10439,764.50507 173.57144,721.97212 173.57144,669.50507 C 173.57144,617.03802 216.10439,574.50507 268.57144,574.50507 C 321.03849,574.50507 363.57144,617.03802 363.57144,669.50507 z"
       transform="matrix(0.7360905,0.3133223,-0.3133223,0.7360905,283.50653,96.539361)"
       id="path3217"
       style="fill:none;fill-opacity:1;stroke:#000000;stroke-width:18.74999809;stroke-linecap:butt;stroke-linejoin:miter;stroke-miterlimit:4;stroke-dasharray:4.68749968, 4.68749968;stroke-dashoffset:0;stroke-opacity:1" />
    <path
       d="M 363.57144,669.50507 C 363.57144,721.97212 321.03849,764.50507 268.57144,764.50507 C 216.10439,764.50507 173.57144,721.97212 173.57144,669.50507 C 173.57144,617.03802 216.10439,574.50507 268.57144,574.50507 C 321.03849,574.50507 363.57144,617.03802 363.57144,669.50507 z"
       transform="matrix(0.7107944,-8.9478723e-2,8.9478723e-2,0.7107944,20.623071,221.65589)"
       id="path3223"
       style="fill:none;fill-opacity:1;stroke:#000000;stroke-width:12.56273842;stroke-linecap:butt;stroke-linejoin:miter;stroke-miterlimit:4;stroke-dasharray:150.7528583, 150.7528583;stroke-dashoffset:0;stroke-opacity:1" />
    <path
       d="M 253.84375,657.21875 L 142.6875,672.375 L 253.84375,697.5 L 271.4375,687.15625 L 289.03125,697.5 L 400.15625,672.375 L 289.03125,657.21875 L 271.4375,657.5625 L 253.84375,657.21875 z"
       id="path3178"
       style="fill:#000100;fill-opacity:1;stroke:none;stroke-width:700;stroke-linecap:round;stroke-linejoin:round;stroke-miterlimit:4;stroke-dashoffset:0;stroke-opacity:1" />
    <path
       d="M 154.20053,672.55742 L 250.78445,695.20781 L 271.44419,684.90625 L 292.07268,695.20781 L 381.58553,673.56758 L 271.44419,667.10714 L 154.20053,672.55742 z"
       id="path3188"
       style="fill:#ffffff;fill-opacity:1;stroke:none;stroke-width:700;stroke-linecap:round;stroke-linejoin:round;stroke-miterlimit:4;stroke-dashoffset:0;stroke-opacity:1" />
    <path
       d="M 246.29148,686.01932 L 271.42856,835.15641 L 296.56564,686.01932 L 271.42856,643.28224 L 246.29148,686.01932 z"
       id="path2406"
       style="fill:#000100;fill-opacity:1;stroke:none;stroke-width:700;stroke-linecap:round;stroke-linejoin:round;stroke-miterlimit:4;stroke-dashoffset:0;stroke-opacity:1" />
    <path
       d="M 250.23376,690.71646 L 270.34342,819.62613 L 261.5388,691.85932 L 270.34342,656.5268 L 250.23376,690.71646 z"
       id="path3211"
       style="fill:#ffffff;fill-opacity:1;stroke:none;stroke-width:700;stroke-linecap:round;stroke-linejoin:round;stroke-miterlimit:4;stroke-dashoffset:0;stroke-opacity:1" />
    <path
       d="M 240.00721,674.93363 L 271.42856,449.51226 L 302.84991,674.93363 L 271.42856,728.35498 L 240.00721,674.93363 z"
       id="rect2383"
       style="fill:#fe0000;fill-opacity:1;stroke:#000000;stroke-width:2;stroke-linecap:round;stroke-linejoin:round;stroke-miterlimit:4;stroke-dasharray:none;stroke-dashoffset:0;stroke-opacity:1" />
    <text
       x="248.62434"
       y="457.26138"
       id="text3313"
       xml:space="preserve"
       style="font-size:64px;font-style:normal;font-variant:normal;font-weight:normal;font-stretch:normal;fill:#ff0000;fill-opacity:1;stroke:none;stroke-width:1px;stroke-linecap:butt;stroke-linejoin:miter;stroke-opacity:1;font-family:Nimbus Roman No9 L;-inkscape-font-specification:Nimbus Roman No9 L"><tspan
         x="248.62434"
         y="457.26138"
         id="tspan3315">N</tspan></text>
    <text
       x="-282.71637"
       y="-836.79675"
       transform="scale(-1,-1)"
       id="text3317"
       xml:space="preserve"
       style="font-size:40px;font-style:normal;font-variant:normal;font-weight:normal;font-stretch:normal;fill:#000000;fill-opacity:1;stroke:none;stroke-width:1px;stroke-linecap:butt;stroke-linejoin:miter;stroke-opacity:1;font-family:Nimbus Roman No9 L;-inkscape-font-specification:Nimbus Roman No9 L"><tspan
         x="-282.71637"
         y="-836.79675"
         id="tspan3319">S</tspan></text>
    <text
       x="660.0451"
       y="-401.82254"
       transform="matrix(0,1,-1,0,0,0)"
       id="text3321"
       xml:space="preserve"
       style="font-size:40px;font-style:normal;font-variant:normal;font-weight:normal;font-stretch:normal;fill:#000000;fill-opacity:1;stroke:none;stroke-width:1px;stroke-linecap:butt;stroke-linejoin:miter;stroke-opacity:1;font-family:Nimbus Roman No9 L;-inkscape-font-specification:Nimbus Roman No9 L"><tspan
         x="660.0451"
         y="-401.82254"
         id="tspan3323">E</tspan></text>
    <text
       x="-692.1051"
       y="144.60106"
       transform="matrix(0,-1,1,0,0,0)"
       id="text3325"
       xml:space="preserve"
       style="font-size:40px;font-style:normal;font-variant:normal;font-weight:normal;font-stretch:normal;fill:#000000;fill-opacity:1;stroke:none;stroke-width:1px;stroke-linecap:butt;stroke-linejoin:miter;stroke-opacity:1;font-family:Nimbus Roman No9 L;-inkscape-font-specification:Nimbus Roman No9 L"><tspan
         x="-692.1051"
         y="144.60106"
         id="tspan3327">W</tspan></text>
  </g>
  <g
     id="g4785"
     transform="matrix(-6.099746e-2,-0.718815,0.718815,-6.099746e-2,15.662958,1794.8855)"
     style="opacity:1">
    <g
       style="filter:url(#filter3685)"
       transform="translate(117.6683,-363.56265)"
       id="g3611">
      <path
         style="fill:url(#linearGradient5130);fill-opacity:1;fill-rule:evenodd;stroke:none;stroke-width:1.79999995;stroke-linecap:butt;stroke-linejoin:round;stroke-miterlimit:4;stroke-dasharray:none;stroke-dashoffset:3.6;stroke-opacity:1"
         id="path3551"
         d="M 1470.2823,499.50944 C 1481.1156,497.82383 1491.8742,495.22878 1502.6666,493.10532 C 1528.451,488.4701 1554.4745,486.46541 1580.5047,485.11679 C 1611.4805,483.24241 1642.4876,482.65732 1673.492,483.54835 C 1706.2518,484.45457 1738.8402,488.6298 1771.3069,493.63089 C 1798.9373,498.02629 1826.3787,503.88465 1853.7703,509.98782 C 1876.7093,515.12749 1899.2795,522.18918 1921.5555,530.41195 C 1943.3484,538.72284 1964.8048,548.20563 1986.432,557.09558 C 2015.5886,569.26124 2045.2151,579.58735 2075.1987,588.43975 C 2110.8991,598.66214 2147.2183,604.81318 2183.7747,608.4621 C 2221.7161,612.08804 2259.7618,611.20739 2297.7263,608.86471 C 2332.9139,606.61364 2367.9652,602.12335 2402.7817,595.74087 C 2421.2063,592.23871 2439.3467,587.11929 2457.3556,581.40005 L 2442.7291,594.68997 C 2424.8512,600.13579 2406.8601,605.07679 2388.5922,608.34892 C 2353.9628,614.33747 2319.1282,618.532 2284.1712,620.66527 C 2246.0872,622.95124 2207.924,623.89522 2169.8652,620.2293 C 2133.198,616.50706 2096.8236,610.03246 2060.9614,600.09062 C 2030.6523,591.38154 2000.6825,581.20445 1971.1242,569.38724 C 1949.3581,560.69702 1927.7815,551.35014 1905.9067,543.04823 C 1883.8125,534.81959 1861.4439,527.60995 1838.6753,522.482 C 1811.489,516.30113 1784.2599,510.31587 1756.8409,505.75091 C 1724.4514,500.66349 1691.9306,496.4558 1659.2287,495.77843 C 1628.1632,495.13013 1597.098,495.72001 1566.0673,497.67432 C 1539.7101,499.25303 1513.3555,501.53627 1487.3124,506.81944 C 1475.9125,509.32724 1464.5893,512.64266 1453.0903,514.31581 L 1470.2823,499.50944 z" />
      <path
         style="fill:url(#linearGradient5132);fill-opacity:1;fill-rule:evenodd;stroke:none;stroke-width:1.79999995;stroke-linecap:butt;stroke-linejoin:round;stroke-miterlimit:4;stroke-dasharray:none;stroke-dashoffset:3.6;stroke-opacity:1"
         id="path3553"
         d="M 1447.4019,543.77411 C 1456.5401,544.9392 1465.6686,546.2328 1474.7814,547.66642 C 1500.397,552.34459 1526.0486,556.60203 1551.7995,560.09035 C 1582.0778,563.9548 1612.5211,565.27312 1642.9566,564.9756 C 1669.1523,564.48004 1695.0742,560.00668 1720.7097,553.91803 C 1746.3128,547.24542 1771.5917,538.98179 1796.9101,530.96179 C 1828.3829,520.14678 1860.4999,512.68279 1892.828,506.58865 C 1932.2846,499.67396 1972.1919,498.25584 2012.0038,497.27297 C 2055.0165,496.43793 2098.0282,496.54427 2141.0171,498.44326 C 2199.0014,501.63002 2256.9984,504.35941 2315.0434,505.14253 C 2359.7507,504.77829 2337.2363,505.12374 2382.5862,504.09196 L 2371.9133,513.32421 C 2326.2726,514.54272 2348.953,514.07134 2303.8719,514.74832 C 2245.29,514.47516 2186.783,511.41958 2128.2323,509.3856 C 2085.0257,508.25597 2041.8118,507.77884 1998.5987,508.87035 C 1958.7136,509.92296 1918.7247,511.45832 1879.2301,518.70161 C 1846.5984,525.1353 1814.2153,533.05291 1782.448,544.11653 C 1757.0506,552.21268 1731.6839,560.53422 1705.9726,567.14034 C 1680.3774,573.09748 1654.4846,577.33369 1628.3479,577.57032 C 1597.9372,577.63027 1567.5335,576.04127 1537.2757,572.30898 C 1511.0974,568.93154 1485.0056,564.77784 1458.8634,561.0496 C 1449.237,559.94351 1439.5992,559.0426 1429.9515,558.28711 L 1447.4019,543.77411 z" />
      <path
         style="opacity:0.90243901;fill:url(#linearGradient5134);fill-opacity:1;fill-rule:evenodd;stroke:none;stroke-width:1.79999995;stroke-linecap:butt;stroke-linejoin:round;stroke-miterlimit:4;stroke-dasharray:none;stroke-dashoffset:3.6;stroke-opacity:1"
         id="path3555"
         d="M 1456.907,460.90696 C 1465.3511,460.15687 1473.8377,460.455 1482.2927,460.72469 C 1508.3052,461.51639 1534.2891,463.3018 1560.2362,465.58086 C 1590.9684,468.1879 1621.5454,472.95793 1651.7451,480.15774 C 1685.0211,488.30686 1717.4997,500.30117 1749.4164,513.99668 C 1789.7198,533.5395 1829.9897,552.49871 1872.0925,565.87839 C 1920.5683,578.70787 1970.6301,576.99151 2019.7431,571.24758 C 2051.6489,566.70507 2083.006,558.29249 2114.1289,549.01223 C 2135.1365,542.72257 2156.2447,536.95867 2177.4335,531.59808 C 2199.3183,526.26788 2220.9884,519.76575 2242.6643,513.36595 C 2264.1591,506.80839 2285.7744,500.87848 2307.5783,495.9613 C 2327.3636,491.67749 2347.4716,490.61743 2367.5257,489.79403 L 2352.6722,502.68952 C 2332.5594,503.68839 2312.4,504.9641 2292.5754,509.40652 C 2270.7951,514.43682 2249.1867,520.38162 2227.695,526.92924 C 2205.9967,533.28303 2184.3195,539.78574 2162.4207,545.11384 C 2141.3568,550.54509 2120.3734,556.38361 2099.4112,562.34088 C 2068.7105,571.05261 2037.7555,578.79198 2006.3547,582.99939 C 1957.4205,587.81272 1907.5116,588.16365 1859.2463,576.34572 C 1816.7629,562.936 1775.8956,544.18213 1734.8421,525.6527 C 1702.9848,511.93757 1670.6635,499.61793 1637.3009,492.10593 C 1607.0119,485.47342 1576.4944,480.24685 1545.7346,477.88359 C 1519.3397,475.72643 1492.8923,474.1489 1466.4255,474.36806 C 1457.5704,474.48188 1448.648,474.49077 1439.8681,476.02385 L 1456.907,460.90696 z" />
      <path
         style="fill:url(#linearGradient5136);fill-opacity:1;fill-rule:evenodd;stroke:none;stroke-width:1.79999995;stroke-linecap:butt;stroke-linejoin:round;stroke-miterlimit:4;stroke-dasharray:none;stroke-dashoffset:3.6;stroke-opacity:1"
         id="path3557"
         d="M 1484.477,553.69794 C 1491.9946,555.19672 1499.5834,556.0728 1507.18,556.78063 C 1521.2557,558.30169 1535.3802,559.11253 1549.5128,559.10846 C 1563.4637,559.06887 1577.2592,556.96959 1590.8644,553.44896 C 1605.1325,549.15952 1619.1196,543.76598 1633.0641,538.21564 C 1650.3048,530.79713 1667.7395,524.27868 1685.4726,518.72999 C 1723.4242,507.3184 1762.2264,500.30851 1801.0032,494.21541 C 1864.3366,484.45846 1927.8874,480.36085 1991.5945,485.60049 C 2052.8692,494.04756 2113.267,509.40799 2173.8254,523.0292 C 2215.8564,533.00434 2258.5458,537.62339 2301.3517,538.58496 C 2307.4286,538.43607 2313.5055,538.28718 2319.5824,538.13829 L 2305.7285,550.10515 C 2299.726,550.15785 2293.7236,550.21055 2287.7213,550.26325 C 2245.1219,548.72697 2202.571,544.12154 2160.7931,533.78697 C 2101.2139,518.48458 2041.6388,501.97666 1980.8826,494.69922 C 1916.62,489.96933 1852.4739,494.05764 1788.7286,505.09868 C 1749.1595,511.9915 1709.5685,519.62695 1670.91,531.99226 C 1652.8777,538.07239 1635.163,545.18912 1617.4834,552.56828 C 1603.4703,558.11525 1589.4019,563.49093 1575.0464,567.67973 C 1561.3636,571.01602 1547.5195,572.99223 1533.5231,572.86985 C 1519.2744,572.75491 1505.0423,571.90771 1490.8335,570.64422 C 1482.8859,570.00811 1474.9467,569.22687 1467.0267,568.21094 L 1484.477,553.69794 z" />
    </g>
    <g
       style="opacity:1"
       transform="matrix(0.8436065,0,0,1,272.31585,-48.997542)"
       id="g2354">
      <path
         style="fill:url(#linearGradient5138);fill-opacity:1;fill-rule:evenodd;stroke:none;stroke-width:1.79999995;stroke-linecap:butt;stroke-linejoin:round;stroke-miterlimit:4;stroke-dasharray:none;stroke-dashoffset:3.6;stroke-opacity:1"
         id="path4107"
         d="M 1545.4873,181.14964 C 1558.3289,179.46403 1571.082,176.86898 1583.8752,174.74552 C 1614.4397,170.1103 1645.2876,168.10561 1676.1434,166.75699 C 1712.8618,164.88261 1749.6172,164.29752 1786.3693,165.18855 C 1825.2024,166.09477 1863.8322,170.27 1902.3179,175.27109 C 1935.0706,179.66649 1967.5992,185.52485 2000.0689,191.62802 C 2027.2604,196.76769 2054.0149,203.82938 2080.4205,212.05215 C 2106.2536,220.36304 2131.6877,229.84583 2157.3243,238.73578 C 2191.8862,250.90144 2227.005,261.22755 2262.5472,270.07995 C 2304.8659,280.30234 2347.9183,286.45338 2391.2517,290.1023 C 2436.227,293.72824 2481.3258,292.84759 2526.3285,290.50491 C 2568.0394,288.25384 2609.5887,283.76355 2650.8597,277.38107 C 2672.7,273.87891 2694.2034,268.75949 2715.5509,263.04025 L 2698.2128,276.33017 C 2677.0206,281.77599 2655.6942,286.71699 2634.0397,289.98912 C 2592.9905,295.97767 2551.698,300.1722 2510.2604,302.30547 C 2465.1161,304.59144 2419.878,305.53542 2374.7636,301.8695 C 2331.2988,298.14726 2288.181,291.67266 2245.6705,281.73082 C 2209.7425,273.02174 2174.2167,262.84465 2139.1786,251.02744 C 2113.3774,242.33722 2087.8008,232.99034 2061.8707,224.68843 C 2035.6805,216.45979 2009.165,209.25015 1982.1755,204.1222 C 1949.9492,197.94133 1917.6722,191.95607 1885.17,187.39111 C 1846.7759,182.30369 1808.2262,178.096 1769.4618,177.41863 C 1732.6372,176.77033 1695.8129,177.36021 1659.0295,179.31452 C 1627.7861,180.89323 1596.5457,183.17647 1565.6745,188.45964 C 1552.1612,190.96744 1538.7388,194.28286 1525.1081,195.95601 L 1545.4873,181.14964 z" />
      <path
         style="fill:url(#linearGradient5140);fill-opacity:1;fill-rule:evenodd;stroke:none;stroke-width:1.79999995;stroke-linecap:butt;stroke-linejoin:round;stroke-miterlimit:4;stroke-dasharray:none;stroke-dashoffset:3.6;stroke-opacity:1"
         id="path4109"
         d="M 1518.3651,225.41431 C 1529.1974,226.5794 1540.0183,227.873 1550.8204,229.30662 C 1581.1848,233.98479 1611.5919,238.24223 1642.1167,241.73055 C 1678.0082,245.595 1714.0953,246.91332 1750.1731,246.6158 C 1781.2251,246.12024 1811.9526,241.64688 1842.3406,235.55823 C 1872.6902,228.88562 1902.6554,220.62199 1932.6676,212.60199 C 1969.975,201.78698 2008.046,194.32299 2046.3674,188.22885 C 2093.1387,181.31416 2140.4443,179.89604 2187.6368,178.91317 C 2238.6234,178.07813 2289.6089,178.18447 2340.5674,180.08346 C 2409.3013,183.27022 2478.0501,185.99961 2546.8559,186.78273 C 2599.8513,186.41849 2573.1631,186.76394 2626.9202,185.73216 L 2614.2687,194.96441 C 2560.1668,196.18292 2587.0519,195.71154 2533.6134,196.38852 C 2464.1711,196.11536 2394.8177,193.05978 2325.4125,191.0258 C 2274.196,189.89617 2222.9708,189.41904 2171.7465,190.51055 C 2124.4673,191.56316 2077.0649,193.09852 2030.2486,200.34181 C 1991.5674,206.7755 1953.1809,214.69311 1915.5244,225.75673 C 1885.4186,233.85288 1855.3493,242.17442 1824.8714,248.78054 C 1794.5312,254.73768 1763.8382,258.97389 1732.8561,259.21052 C 1696.8077,259.27047 1660.7676,257.68147 1624.9003,253.94918 C 1593.8689,250.57174 1562.9401,246.41804 1531.9514,242.6898 C 1520.5404,241.58371 1509.1159,240.6828 1497.6797,239.92731 L 1518.3651,225.41431 z" />
      <path
         style="opacity:0.90243901;fill:url(#linearGradient5142);fill-opacity:1;fill-rule:evenodd;stroke:none;stroke-width:1.79999995;stroke-linecap:butt;stroke-linejoin:round;stroke-miterlimit:4;stroke-dasharray:none;stroke-dashoffset:3.6;stroke-opacity:1"
         id="path4178"
         d="M 1529.6323,142.54716 C 1539.6419,141.79707 1549.7018,142.0952 1559.7242,142.36489 C 1590.5591,143.15659 1621.3601,144.942 1652.1174,147.22106 C 1688.547,149.8281 1724.7925,154.59813 1760.5909,161.79794 C 1800.0358,169.94706 1838.5355,181.94137 1876.3691,195.63688 C 1924.1443,215.1797 1971.8797,234.13891 2021.7878,247.51859 C 2079.2503,260.34807 2138.5929,258.63171 2196.8108,252.88778 C 2234.6316,248.34527 2271.8018,239.93269 2308.6945,230.65243 C 2333.5967,224.36277 2358.618,218.59887 2383.735,213.23828 C 2409.6769,207.90808 2435.3643,201.40595 2461.0587,195.00615 C 2486.5383,188.44859 2512.1608,182.51868 2538.0069,177.6015 C 2561.4601,173.31769 2585.2959,172.25763 2609.0677,171.43423 L 2591.4606,184.32972 C 2567.6191,185.32859 2543.7224,186.6043 2520.2226,191.04672 C 2494.4046,196.07702 2468.7902,202.02182 2443.3143,208.56944 C 2417.5934,214.92323 2391.8975,221.42594 2365.939,226.75404 C 2340.9701,232.18529 2316.0967,238.02381 2291.2484,243.98108 C 2254.8562,252.69281 2218.1625,260.43218 2180.9404,264.63959 C 2122.9344,269.45292 2063.7731,269.80385 2006.5601,257.98592 C 1956.2008,244.5762 1907.7572,225.82233 1859.0929,207.2929 C 1821.3297,193.57777 1783.0165,181.25813 1743.4689,173.74613 C 1707.5647,167.11362 1671.3897,161.88705 1634.9274,159.52379 C 1603.6393,157.36663 1572.2888,155.7891 1540.9155,156.00826 C 1530.4188,156.12208 1519.8422,156.13097 1509.4347,157.66405 L 1529.6323,142.54716 z" />
      <path
         style="fill:url(#linearGradient5144);fill-opacity:1;fill-rule:evenodd;stroke:none;stroke-width:1.79999995;stroke-linecap:butt;stroke-linejoin:round;stroke-miterlimit:4;stroke-dasharray:none;stroke-dashoffset:3.6;stroke-opacity:1"
         id="path4176"
         d="M 1562.3135,235.33814 C 1571.2247,236.83692 1580.2204,237.713 1589.2253,238.42083 C 1605.9104,239.94189 1622.6534,240.75273 1639.4061,240.74866 C 1655.9433,240.70907 1672.2963,238.60979 1688.4237,235.08916 C 1705.3369,230.79972 1721.917,225.40618 1738.4466,219.85584 C 1758.8836,212.43733 1779.5504,205.91888 1800.571,200.37019 C 1845.5583,188.9586 1891.5539,181.94871 1937.5194,175.85561 C 2012.594,166.09866 2087.9263,162.00105 2163.4439,167.24069 C 2236.0781,175.68776 2307.6728,191.04819 2379.458,204.6694 C 2429.281,214.64454 2479.8844,219.26359 2530.6259,220.22516 C 2537.8294,220.07627 2545.0329,219.92738 2552.2364,219.77849 L 2535.8141,231.74535 C 2528.6989,231.79805 2521.5837,231.85075 2514.4686,231.90345 C 2463.9719,230.36717 2413.5326,225.76174 2364.0097,215.42717 C 2293.3853,200.12478 2222.7657,183.61686 2150.7461,176.33942 C 2074.5701,171.60953 1998.5321,175.69784 1922.9693,186.73888 C 1876.0646,193.6317 1829.134,201.26715 1783.3087,213.63246 C 1761.9334,219.71259 1740.9347,226.82932 1719.9775,234.20848 C 1703.3665,239.75545 1686.6901,245.13113 1669.6732,249.31993 C 1653.4538,252.65622 1637.0432,254.63243 1620.4521,254.51005 C 1603.5618,254.39511 1586.6913,253.54791 1569.8484,252.28442 C 1560.4274,251.64831 1551.0164,250.86707 1541.6281,249.85114 L 1562.3135,235.33814 z" />
    </g>
    <path
       transform="matrix(0.8358209,0,0,0.8484848,618.18126,151.61878)"
       d="M 2129.3709,14.176903 A 48.201473,46.783783 0 1 1 2032.968,14.176903 A 48.201473,46.783783 0 1 1 2129.3709,14.176903 z"
       sodipodi:ry="46.783783"
       sodipodi:rx="48.201473"
       sodipodi:cy="14.176903"
       sodipodi:cx="2081.1694"
       id="path4305"
       style="opacity:0.3414634;fill:#ffffff;fill-opacity:1;fill-rule:evenodd;stroke:none;stroke-width:1.79999995;stroke-linecap:butt;stroke-linejoin:round;stroke-miterlimit:4;stroke-dasharray:none;stroke-dashoffset:3.6;stroke-opacity:1;filter:url(#filter3697)"
       sodipodi:type="arc" />
    <path
       transform="matrix(0.6567164,0,0,0.6666667,897.67822,205.43476)"
       d="M 2129.3709,14.176903 A 48.201473,46.783783 0 1 1 2032.968,14.176903 A 48.201473,46.783783 0 1 1 2129.3709,14.176903 z"
       sodipodi:ry="46.783783"
       sodipodi:rx="48.201473"
       sodipodi:cy="14.176903"
       sodipodi:cx="2081.1694"
       id="path4307"
       style="opacity:0.3414634;fill:#ffffff;fill-opacity:1;fill-rule:evenodd;stroke:none;stroke-width:1.79999995;stroke-linecap:butt;stroke-linejoin:round;stroke-miterlimit:4;stroke-dasharray:none;stroke-dashoffset:3.6;stroke-opacity:1;filter:url(#filter3665)"
       sodipodi:type="arc" />
    <path
       transform="matrix(0.4477612,0,0,0.4545454,1230.3277,182.92355)"
       d="M 2129.3709,14.176903 A 48.201473,46.783783 0 1 1 2032.968,14.176903 A 48.201473,46.783783 0 1 1 2129.3709,14.176903 z"
       sodipodi:ry="46.783783"
       sodipodi:rx="48.201473"
       sodipodi:cy="14.176903"
       sodipodi:cx="2081.1694"
       id="path4309"
       style="opacity:0.3414634;fill:#ffffff;fill-opacity:1;fill-rule:evenodd;stroke:none;stroke-width:1.79999995;stroke-linecap:butt;stroke-linejoin:round;stroke-miterlimit:4;stroke-dasharray:none;stroke-dashoffset:3.6;stroke-opacity:1;filter:url(#filter3661)"
       sodipodi:type="arc" />
    <path
       transform="matrix(0.2647059,0,0,0.2687165,1533.0065,147.46802)"
       d="M 2129.3709,14.176903 A 48.201473,46.783783 0 1 1 2032.968,14.176903 A 48.201473,46.783783 0 1 1 2129.3709,14.176903 z"
       sodipodi:ry="46.783783"
       sodipodi:rx="48.201473"
       sodipodi:cy="14.176903"
       sodipodi:cx="2081.1694"
       id="path4311"
       style="opacity:0.3414634;fill:#ffffff;fill-opacity:1;fill-rule:evenodd;stroke:none;stroke-width:1.79999995;stroke-linecap:butt;stroke-linejoin:round;stroke-miterlimit:4;stroke-dasharray:none;stroke-dashoffset:3.6;stroke-opacity:1;filter:url(#filter3657)"
       sodipodi:type="arc" />
  </g>
</svg>
